<?xml version="1.0"?>
<svg xmlns="http://www.w3.org/2000/svg" fill="#9e9e9e" id="Icons" viewBox="0 0 74 74" width="512" height="512"><path d="M37,72A19.759,19.759,0,1,1,56.759,52.241,19.781,19.781,0,0,1,37,72Zm0-37.517A17.759,17.759,0,1,0,54.759,52.241,17.779,17.779,0,0,0,37,34.483Z"/><path d="M42.593,60.892a1,1,0,0,1-.465-.115L37,58.082l-5.128,2.7a1,1,0,0,1-1.451-1.054l.979-5.71-4.149-4.044a1,1,0,0,1,.555-1.706l5.733-.833,2.564-5.2a1.042,1.042,0,0,1,1.794,0l2.564,5.2,5.733.833a1,1,0,0,1,.555,1.706L42.6,54.013l.979,5.71a1,1,0,0,1-.986,1.169ZM37,55.952a1,1,0,0,1,.465.115l3.8,2-.726-4.231a1,1,0,0,1,.288-.885l3.074-3-4.249-.617a1,1,0,0,1-.753-.547L37,44.937l-1.9,3.85a1,1,0,0,1-.753.547l-4.249.617,3.074,3a1,1,0,0,1,.288.885l-.726,4.231,3.8-2A1,1,0,0,1,37,55.952Z"/><path d="M46.239,36.91a1,1,0,0,1-1-1V28.793a.172.172,0,0,0-.172-.172H28.934a.172.172,0,0,0-.172.172V35.91a1,1,0,0,1-2,0V28.793a2.175,2.175,0,0,1,2.172-2.172H45.066a2.175,2.175,0,0,1,2.172,2.172V35.91A1,1,0,0,1,46.239,36.91Z"/><path d="M41.9,28.621h-9.7a1,1,0,0,1-.9-1.445L43.536,2.56a1,1,0,0,1,.9-.555h9.7a1,1,0,0,1,.9,1.445L42.792,28.066A1,1,0,0,1,41.9,28.621Zm-8.09-2h7.47L52.521,4.005h-7.47Z"/><path d="M32.19,28.62a1.142,1.142,0,0,1-.985-.555L18.964,3.445A1,1,0,0,1,19.86,2h9.71a1,1,0,0,1,.9.567l7.3,15.2a1,1,0,0,1-1.8.866L28.941,4H21.474L32.9,26.99a.985.985,0,0,1-.713,1.63Z"/></svg>
