<?xml version="1.0"?>
<svg xmlns="http://www.w3.org/2000/svg" id="Icons" viewBox="0 0 74 74" width="512" height="512"><path d="M61.728,69.489H12.272A4.1,4.1,0,0,1,8.182,65.4V32.943a1,1,0,0,1,1-1H64.818a1,1,0,0,1,1,1V65.4A4.1,4.1,0,0,1,61.728,69.489ZM10.182,33.943V65.4a2.093,2.093,0,0,0,2.091,2.091H61.728A2.093,2.093,0,0,0,63.818,65.4V33.943Z"/><path d="M69.454,33.943H4.546A2.548,2.548,0,0,1,2,31.4V23.67a2.548,2.548,0,0,1,2.546-2.545H69.454A2.548,2.548,0,0,1,72,23.67V31.4A2.548,2.548,0,0,1,69.454,33.943ZM4.546,23.125A.546.546,0,0,0,4,23.67V31.4a.546.546,0,0,0,.546.545H69.454A.546.546,0,0,0,70,31.4V23.67a.546.546,0,0,0-.546-.545Z"/><path d="M39.063,23.125a1.012,1.012,0,0,1-.3-.046,1,1,0,0,1-.655-1.253c1.236-3.955,3.452-9.3,6.988-12.333a7.349,7.349,0,1,1,9.552,11.172,16.077,16.077,0,0,1-3.808,2.366A1,1,0,1,1,50,21.218a14.141,14.141,0,0,0,3.344-2.068A5.349,5.349,0,1,0,46.4,11.014c-3.342,2.862-5.432,8.377-6.38,11.41A1,1,0,0,1,39.063,23.125Z"/><path d="M39.063,23.125a1,1,0,0,1-.954-.7c-1.185-3.787-3.8-10.675-7.988-14.264a6.876,6.876,0,0,0-8.936,10.453,17.8,17.8,0,0,0,4.209,2.605,1,1,0,1,1-.84,1.814,19.721,19.721,0,0,1-4.673-2.9A8.876,8.876,0,0,1,31.42,6.64c4.343,3.719,7.072,10.311,8.6,15.187a1,1,0,0,1-.655,1.253A1.012,1.012,0,0,1,39.063,23.125Z"/><path d="M42.7,69.489H31.3a1,1,0,0,1-1-1V32.943a1,1,0,0,1,1-1H42.7a1,1,0,0,1,1,1V68.489A1,1,0,0,1,42.7,69.489Zm-10.4-2h9.4V33.943H32.3Z"/></svg>
