<?xml version="1.0"?>
<svg xmlns="http://www.w3.org/2000/svg" id="Icons" viewBox="0 0 74 74" width="512" height="512"><path d="M45.275,72a10.712,10.712,0,0,1-4.5-1.491A9.712,9.712,0,0,0,37,69.187a9.708,9.708,0,0,0-3.774,1.323c-1.825.909-3.711,1.848-5.566,1.354-1.931-.517-3.118-2.317-4.266-4.059a9.441,9.441,0,0,0-2.488-2.925,9.566,9.566,0,0,0-3.842-.719c-2.061-.127-4.192-.258-5.579-1.645S9.966,59,9.839,56.938A9.557,9.557,0,0,0,9.12,53.1a9.446,9.446,0,0,0-2.925-2.489c-1.741-1.148-3.542-2.335-4.059-4.266-.5-1.853.445-3.74,1.354-5.565A9.712,9.712,0,0,0,4.813,37,9.708,9.708,0,0,0,3.49,33.226c-.909-1.826-1.85-3.713-1.354-5.566.517-1.931,2.317-3.118,4.059-4.266A9.441,9.441,0,0,0,9.12,20.905a9.566,9.566,0,0,0,.719-3.842c.127-2.061.258-4.192,1.645-5.579S15,9.966,17.062,9.839A9.557,9.557,0,0,0,20.9,9.12a9.446,9.446,0,0,0,2.489-2.925c1.148-1.741,2.335-3.542,4.266-4.059,1.851-.493,3.74.445,5.565,1.354A9.712,9.712,0,0,0,37,4.813,9.708,9.708,0,0,0,40.774,3.49c1.826-.909,3.712-1.847,5.566-1.354,1.931.517,3.118,2.317,4.266,4.059A9.441,9.441,0,0,0,53.095,9.12a9.566,9.566,0,0,0,3.842.719c2.061.127,4.192.258,5.579,1.645S64.034,15,64.161,17.062A9.557,9.557,0,0,0,64.88,20.9a9.446,9.446,0,0,0,2.925,2.489c1.741,1.148,3.542,2.335,4.059,4.266.5,1.853-.445,3.74-1.354,5.565A9.712,9.712,0,0,0,69.187,37a9.708,9.708,0,0,0,1.323,3.774c.909,1.826,1.85,3.713,1.354,5.566-.517,1.931-2.317,3.118-4.059,4.266a9.441,9.441,0,0,0-2.925,2.488,9.566,9.566,0,0,0-.719,3.842c-.127,2.061-.258,4.192-1.645,5.579S59,64.034,56.938,64.161a9.557,9.557,0,0,0-3.842.719,9.446,9.446,0,0,0-2.489,2.925c-1.148,1.741-2.335,3.542-4.266,4.059A4.121,4.121,0,0,1,45.275,72ZM28.729,4a2.113,2.113,0,0,0-.552.069c-1.2.319-2.171,1.8-3.113,3.227a10.7,10.7,0,0,1-3.157,3.556,10.834,10.834,0,0,1-4.721.984c-1.768.109-3.437.212-4.288,1.063s-.954,2.521-1.063,4.288a10.832,10.832,0,0,1-.983,4.721A10.692,10.692,0,0,1,7.3,25.063c-1.43.942-2.908,1.917-3.227,3.113-.3,1.122.435,2.6,1.212,4.157A11,11,0,0,1,6.813,37,11,11,0,0,1,5.28,41.667C4.5,43.228,3.769,44.7,4.068,45.824c.319,1.2,1.8,2.171,3.227,3.113a10.7,10.7,0,0,1,3.556,3.157,10.834,10.834,0,0,1,.984,4.721c.109,1.768.212,3.437,1.063,4.288s2.521.954,4.288,1.063a10.832,10.832,0,0,1,4.721.983A10.692,10.692,0,0,1,25.063,66.7c.942,1.43,1.917,2.908,3.113,3.227,1.124.3,2.6-.435,4.157-1.212A11,11,0,0,1,37,67.187a11,11,0,0,1,4.667,1.533c1.562.778,3.037,1.515,4.157,1.212,1.2-.319,2.171-1.8,3.113-3.227a10.7,10.7,0,0,1,3.157-3.556,10.834,10.834,0,0,1,4.721-.984c1.768-.109,3.437-.212,4.288-1.063s.954-2.521,1.063-4.288a10.832,10.832,0,0,1,.983-4.721A10.692,10.692,0,0,1,66.7,48.937c1.43-.942,2.908-1.917,3.227-3.113.3-1.122-.435-2.6-1.212-4.157A11,11,0,0,1,67.187,37a11,11,0,0,1,1.533-4.667c.777-1.562,1.512-3.036,1.212-4.157-.319-1.2-1.8-2.171-3.227-3.113a10.7,10.7,0,0,1-3.556-3.157,10.834,10.834,0,0,1-.984-4.721c-.109-1.768-.212-3.437-1.063-4.288s-2.521-.954-4.288-1.063a10.832,10.832,0,0,1-4.721-.983A10.692,10.692,0,0,1,48.937,7.3c-.942-1.43-1.917-2.908-3.113-3.227-1.121-.3-2.6.435-4.157,1.212A11,11,0,0,1,37,6.813,11,11,0,0,1,32.333,5.28,9.341,9.341,0,0,0,28.729,4Z"/><path d="M37,61A24,24,0,1,1,61,37,24.027,24.027,0,0,1,37,61Zm0-46A22,22,0,1,0,59,37,22.025,22.025,0,0,0,37,15Z"/><path d="M27.334,48.14a1,1,0,0,1-.708-1.707L46.35,26.7a1,1,0,1,1,1.415,1.414L28.042,47.847A1,1,0,0,1,27.334,48.14Z"/><path d="M43.417,48.076a4.64,4.64,0,1,1,4.64-4.64A4.645,4.645,0,0,1,43.417,48.076Zm0-7.28a2.64,2.64,0,1,0,2.64,2.64A2.643,2.643,0,0,0,43.417,40.8Z"/><path d="M30.583,35.14a4.64,4.64,0,1,1,4.64-4.64A4.645,4.645,0,0,1,30.583,35.14Zm0-7.28a2.64,2.64,0,1,0,2.64,2.64A2.643,2.643,0,0,0,30.583,27.86Z"/></svg>
