<svg id="Icons" height="512" viewBox="0 0 74 74" width="512" xmlns="http://www.w3.org/2000/svg"><path d="m28.011 72h-13.223a6.561 6.561 0 0 1 -6.554-6.553v-30.072a2.1 2.1 0 0 1 2.1-2.1h22.134a2.1 2.1 0 0 1 2.1 2.1v30.072a6.56 6.56 0 0 1 -6.557 6.553zm-17.681-36.72a.1.1 0 0 0 -.1.1v30.067a4.559 4.559 0 0 0 4.558 4.553h13.223a4.558 4.558 0 0 0 4.553-4.553v-30.072a.1.1 0 0 0 -.1-.1z"/><path d="m30.734 35.28a1 1 0 0 1 -1-1v-10.333h-16.659v10.333a1 1 0 0 1 -2 0v-10.333a2 2 0 0 1 2-2h16.659a2 2 0 0 1 2 2v10.333a1 1 0 0 1 -1 1z"/><path d="m26.7 23.947h-10.59a1 1 0 0 1 -1-1v-19.947a1 1 0 0 1 1.577-.817l10.59 7.48a1 1 0 0 1 .423.817v12.467a1 1 0 0 1 -1 1zm-9.59-2h8.59v-10.947l-8.59-6.069z"/><path d="m59.361 70.187h-10.946a4.647 4.647 0 0 1 -4.615-4.287l-1.783-23.959a2.014 2.014 0 0 1 2.009-2.164h19.725a2.014 2.014 0 0 1 2.009 2.164l-1.784 23.959a4.647 4.647 0 0 1 -4.615 4.287zm-15.336-28.409-.015.015 1.784 23.962a2.639 2.639 0 0 0 2.62 2.432h10.947a2.639 2.639 0 0 0 2.62-2.432l1.784-23.961z"/></svg>