<?xml version="1.0"?>
<svg xmlns="http://www.w3.org/2000/svg" id="Icons" viewBox="0 0 74 74" width="512" height="512"><path d="M71,70.9H3a1,1,0,0,1-1-1V21.645a1,1,0,0,1,1-1H71a1,1,0,0,1,1,1V69.9A1,1,0,0,1,71,70.9Zm-67-2H70V22.645H4Z"/><path d="M71,22.645H3a1,1,0,0,1-.8-1.6L15.361,3.5a1,1,0,0,1,.8-.4H57.839a1,1,0,0,1,.8.4L71.8,21.045a1,1,0,0,1-.8,1.6Zm-66-2H69L57.339,5.1H16.661Z"/><path d="M45.5,22.645h-17a1,1,0,0,1-.98-1.2L31.02,3.9A1,1,0,0,1,32,3.1H42a1,1,0,0,1,.98.8l3.5,17.548a1,1,0,0,1-.98,1.2Zm-15.781-2H44.281L41.18,5.1H32.82Z"/><path d="M45.5,41.484a1,1,0,0,1-.633-.226L37,34.829l-7.867,6.429a1,1,0,0,1-1.633-.774V21.645a1,1,0,0,1,1-1h17a1,1,0,0,1,1,1V40.484a1,1,0,0,1-1,1ZM37,32.538a1,1,0,0,1,.633.226L44.5,38.375V22.645h-15v15.73l6.867-5.612A1,1,0,0,1,37,32.538Z"/></svg>
