<svg id="Icons" height="512" viewBox="0 0 74 74" width="512" xmlns="http://www.w3.org/2000/svg"><path d="m32.012 13.977a1 1 0 0 1 -.712-1.707l4.281-4.281-4.281-4.282a1 1 0 0 1 1.414-1.414l4.988 4.989a1 1 0 0 1 0 1.414l-4.988 4.988a1 1 0 0 1 -.702.293z"/><path d="m37 72a32.506 32.506 0 1 1 0-65.011 1 1 0 0 1 0 2 30.5 30.5 0 1 0 18.3 6.1 1 1 0 1 1 1.2-1.6 32.507 32.507 0 0 1 -19.5 58.511z"/><path d="m37 60.152a20.658 20.658 0 1 1 20.658-20.658 20.682 20.682 0 0 1 -20.658 20.658zm0-39.316a18.658 18.658 0 1 0 18.658 18.658 18.679 18.679 0 0 0 -18.658-18.658z"/><path d="m37 40.494a5.988 5.988 0 1 1 5.988-5.988 1 1 0 1 1 -2 0 3.988 3.988 0 1 0 -3.988 3.988 1 1 0 0 1 0 2z"/><path d="m37 50.471a6 6 0 0 1 -5.988-5.988 1 1 0 0 1 2 0 3.988 3.988 0 1 0 3.988-3.989 1 1 0 0 1 0-2 5.989 5.989 0 0 1 0 11.977z"/><path d="m37 52.658a1 1 0 0 1 -1-1v-24.328a1 1 0 0 1 2 0v24.328a1 1 0 0 1 -1 1z"/></svg>