<?xml version="1.0"?>
<svg xmlns="http://www.w3.org/2000/svg" id="Icons" viewBox="0 0 74 74" width="512" height="512"><path d="M37,72A35,35,0,1,1,72,37,35.04,35.04,0,0,1,37,72ZM37,4A33,33,0,1,0,70,37,33.037,33.037,0,0,0,37,4Z"/><path d="M64.5,58a1,1,0,0,1-.809-.411,35.019,35.019,0,0,1,0-41.178,1,1,0,1,1,1.616,1.178,33.02,33.02,0,0,0,0,38.822A1,1,0,0,1,64.5,58Z"/><path d="M13.49,62.56a1,1,0,0,1-.69-1.724A32.644,32.644,0,0,0,23,37,32.644,32.644,0,0,0,12.8,13.164a1,1,0,0,1,1.38-1.447A34.623,34.623,0,0,1,25,37,34.623,34.623,0,0,1,14.18,62.284,1,1,0,0,1,13.49,62.56Z"/><path d="M35.629,71.971A1,1,0,0,1,34.7,70.6c8.652-21.675,8.633-44.29-.056-67.215a1,1,0,0,1,1.87-.709c8.873,23.409,8.887,46.511.043,68.666A1,1,0,0,1,35.629,71.971Z"/><path d="M71,38a1,1,0,0,1-.23-.026,146.157,146.157,0,0,0-67.542,0,1,1,0,1,1-.458-1.947,148.172,148.172,0,0,1,68.458,0A1,1,0,0,1,71,38Z"/></svg>
