<svg id="Icons" height="512" viewBox="0 0 74 74" width="512" xmlns="http://www.w3.org/2000/svg"><path d="m57 72h-40a5.006 5.006 0 0 1 -5-5v-60a5.006 5.006 0 0 1 5-5h40a5.006 5.006 0 0 1 5 5v60a5.006 5.006 0 0 1 -5 5zm-40-68a3 3 0 0 0 -3 3v60a3 3 0 0 0 3 3h40a3 3 0 0 0 3-3v-60a3 3 0 0 0 -3-3z"/><path d="m53.5 23h-33a2 2 0 0 1 -2-2v-9a2 2 0 0 1 2-2h33a2 2 0 0 1 2 2v9a2 2 0 0 1 -2 2zm-33-11v9h33v-9z"/><path d="m52.625 37.292h-5.208a1.71 1.71 0 0 1 -1.709-1.708v-5.209a1.711 1.711 0 0 1 1.709-1.708h5.208a1.711 1.711 0 0 1 1.708 1.708v5.208a1.71 1.71 0 0 1 -1.708 1.709zm-4.917-2h4.625v-4.625h-4.625z"/><path d="m39.6 37.292h-5.2a1.71 1.71 0 0 1 -1.708-1.708v-5.209a1.711 1.711 0 0 1 1.708-1.708h5.2a1.711 1.711 0 0 1 1.708 1.708v5.208a1.71 1.71 0 0 1 -1.708 1.709zm-4.917-2h4.625v-4.625h-4.62z"/><path d="m26.583 37.292h-5.208a1.71 1.71 0 0 1 -1.708-1.708v-5.209a1.711 1.711 0 0 1 1.708-1.708h5.208a1.711 1.711 0 0 1 1.709 1.708v5.208a1.71 1.71 0 0 1 -1.709 1.709zm-4.916-2h4.625v-4.625h-4.625z"/><path d="m39.6 50.313h-5.2a1.711 1.711 0 0 1 -1.712-1.713v-5.2a1.711 1.711 0 0 1 1.712-1.712h5.2a1.711 1.711 0 0 1 1.713 1.712v5.2a1.711 1.711 0 0 1 -1.713 1.713zm-4.917-2h4.625v-4.625h-4.62z"/><path d="m26.583 50.313h-5.208a1.711 1.711 0 0 1 -1.708-1.713v-5.2a1.711 1.711 0 0 1 1.708-1.708h5.208a1.711 1.711 0 0 1 1.709 1.708v5.2a1.711 1.711 0 0 1 -1.709 1.713zm-4.916-2h4.625v-4.625h-4.625z"/><path d="m52.622 63.33h-5.2a1.711 1.711 0 0 1 -1.708-1.708v-18.222a1.711 1.711 0 0 1 1.708-1.708h5.2a1.711 1.711 0 0 1 1.708 1.708v18.222a1.711 1.711 0 0 1 -1.708 1.708zm-4.912-2h4.62v-17.64h-4.62z"/><path d="m39.6 63.333h-5.2a1.711 1.711 0 0 1 -1.708-1.708v-5.208a1.71 1.71 0 0 1 1.708-1.709h5.2a1.71 1.71 0 0 1 1.708 1.708v5.208a1.711 1.711 0 0 1 -1.708 1.709zm-4.917-2h4.625v-4.625h-4.62z"/><path d="m26.583 63.333h-5.208a1.711 1.711 0 0 1 -1.708-1.708v-5.208a1.71 1.71 0 0 1 1.708-1.708h5.208a1.71 1.71 0 0 1 1.709 1.708v5.208a1.711 1.711 0 0 1 -1.709 1.708zm-4.916-2h4.625v-4.625h-4.625z"/></svg>