<?xml version="1.0"?>
<svg xmlns="http://www.w3.org/2000/svg" id="Icons" fill="#9e9e9e" viewBox="0 0 74 74" width="512" height="512"><path d="M37,72A19.853,19.853,0,0,1,17.169,52.169V35.431a19.831,19.831,0,0,1,39.662,0V52.169A19.853,19.853,0,0,1,37,72Zm0-54.4A17.851,17.851,0,0,0,19.169,35.431V52.169a17.831,17.831,0,0,0,35.662,0V35.431A17.851,17.851,0,0,0,37,17.6Z"/><path d="M37,32.769a4.75,4.75,0,0,1-4.756-4.755V16.977a1,1,0,0,1,2,0V28.014a2.756,2.756,0,0,0,5.512,0V16.977a1,1,0,0,1,2,0V28.014A4.761,4.761,0,0,1,37,32.769Z"/><path d="M37,37.477a1,1,0,0,1-1-1V31.769a1,1,0,0,1,2,0v4.708A1,1,0,0,1,37,37.477Z"/><path d="M55.831,37.477H18.169a1,1,0,1,1,0-2H55.831a1,1,0,0,1,0,2Z"/><path d="M37,26.721a1,1,0,0,1-1-1V22.256a1,1,0,0,1,2,0v3.465A1,1,0,0,1,37,26.721Z"/><path d="M37,17.6a1,1,0,0,1-1-1V15.554a7.285,7.285,0,0,1,7.277-7.277h3.138A5.283,5.283,0,0,0,51.692,3a1,1,0,0,1,2,0,7.285,7.285,0,0,1-7.277,7.277H43.277A5.283,5.283,0,0,0,38,15.554V16.6A1,1,0,0,1,37,17.6Z"/></svg>
