<?xml version="1.0"?>
<svg xmlns="http://www.w3.org/2000/svg" id="Icons" fill="#9e9e9e" viewBox="0 0 74 74" width="512" height="512"><path d="M71,27.032H3a1,1,0,0,1-.916-1.4L9.762,8.083a1,1,0,0,1,.916-.6H63.322a1,1,0,0,1,.916.6l7.678,17.548a1,1,0,0,1-.916,1.4Zm-66.471-2H69.471l-6.8-15.548H11.332Z"/><path d="M66.143,37.9a5.863,5.863,0,0,1-5.856-5.857V26.032a1,1,0,0,1,1-1H71a1,1,0,0,1,1,1v6.014A5.864,5.864,0,0,1,66.143,37.9ZM62.286,27.032v5.014a3.857,3.857,0,1,0,7.714,0V27.032Z"/><path d="M56.429,37.9a5.864,5.864,0,0,1-5.857-5.857V26.032a1,1,0,0,1,1-1h9.715a1,1,0,0,1,1,1v6.014A5.864,5.864,0,0,1,56.429,37.9ZM52.571,27.032v5.014a3.857,3.857,0,0,0,7.715,0V27.032Z"/><path d="M46.714,37.9a5.863,5.863,0,0,1-5.856-5.857V26.032a1,1,0,0,1,1-1h9.714a1,1,0,0,1,1,1v6.014A5.864,5.864,0,0,1,46.714,37.9ZM42.857,27.032v5.014a3.857,3.857,0,1,0,7.714,0V27.032Z"/><path d="M37,37.9a5.864,5.864,0,0,1-5.857-5.857V26.032a1,1,0,0,1,1-1h9.715a1,1,0,0,1,1,1v6.014A5.864,5.864,0,0,1,37,37.9ZM33.143,27.032v5.014a3.857,3.857,0,0,0,7.715,0V27.032Z"/><path d="M27.286,37.9a5.864,5.864,0,0,1-5.857-5.857V26.032a1,1,0,0,1,1-1h9.714a1,1,0,0,1,1,1v6.014A5.863,5.863,0,0,1,27.286,37.9ZM23.429,27.032v5.014a3.857,3.857,0,1,0,7.714,0V27.032Z"/><path d="M17.571,37.9a5.864,5.864,0,0,1-5.857-5.857V26.032a1,1,0,0,1,1-1h9.715a1,1,0,0,1,1,1v6.014A5.864,5.864,0,0,1,17.571,37.9ZM13.714,27.032v5.014a3.857,3.857,0,0,0,7.715,0V27.032Z"/><path d="M7.857,37.9A5.864,5.864,0,0,1,2,32.046V26.032a1,1,0,0,1,1-1h9.714a1,1,0,0,1,1,1v6.014A5.863,5.863,0,0,1,7.857,37.9ZM4,27.032v5.014a3.857,3.857,0,1,0,7.714,0V27.032Z"/><path d="M67.161,66.516H6.839a1,1,0,0,1-1-1V36.793a1,1,0,0,1,2,0V64.516H66.161V36.793a1,1,0,0,1,2,0V65.516A1,1,0,0,1,67.161,66.516Z"/><path d="M31.5,66.516H16a1,1,0,0,1-1-1V46a1,1,0,0,1,1-1H31.5a1,1,0,0,1,1,1V65.516A1,1,0,0,1,31.5,66.516Zm-14.5-2H30.5V47H17Z"/><path d="M58,58H40a1,1,0,0,1-1-1V46a1,1,0,0,1,1-1H58a1,1,0,0,1,1,1V57A1,1,0,0,1,58,58ZM41,56H57V47H41Z"/></svg>
