<?xml version="1.0"?>
<svg xmlns="http://www.w3.org/2000/svg" id="Icons" viewBox="0 0 74 74" width="512" height="512"><path d="M59.11,57.819a3.871,3.871,0,0,1-2.441-.874,59.539,59.539,0,0,0-14.627-8.709c-7.739-3.207-13.853-4.516-21.1-4.516H7.068A5.074,5.074,0,0,1,2,38.653V21.364A5.074,5.074,0,0,1,7.068,16.3H20.94C34,16.3,45.687,11.971,56.667,3.074a3.859,3.859,0,0,1,6.3,2.984v47.9a3.819,3.819,0,0,1-2.189,3.478A3.877,3.877,0,0,1,59.11,57.819ZM7.068,18.3A3.071,3.071,0,0,0,4,21.364v17.29a3.071,3.071,0,0,0,3.068,3.068H20.94c7.531,0,13.867,1.353,21.868,4.668a61.521,61.521,0,0,1,15.118,9,1.842,1.842,0,0,0,2,.242,1.813,1.813,0,0,0,1.05-1.672V6.059a1.813,1.813,0,0,0-1.051-1.673,1.845,1.845,0,0,0-1.994.242C46.575,13.825,34.478,18.3,20.94,18.3Z"/><path d="M18.327,71.8H11.51a2.7,2.7,0,0,1-2.692-2.692V42.721a1,1,0,1,1,2,0V69.108a.693.693,0,0,0,.692.692h6.817a.693.693,0,0,0,.692-.692V42.721a1,1,0,0,1,2,0V69.108A2.7,2.7,0,0,1,18.327,71.8Z"/><path d="M24.044,58.009H20.02a1,1,0,0,1-1-1V49.574a1,1,0,0,1,1-1h4.024a1.847,1.847,0,0,1,1.845,1.845v5.746A1.847,1.847,0,0,1,24.044,58.009Zm-3.024-2h2.869V50.574H21.02Z"/><path d="M22.069,43.737a1,1,0,0,1-1-1V17.28a1,1,0,0,1,2,0V42.737A1,1,0,0,1,22.069,43.737Z"/><path d="M61.972,40.037a1,1,0,0,1,0-2,8.029,8.029,0,0,0,0-16.058,1,1,0,0,1,0-2,10.029,10.029,0,0,1,0,20.058Z"/></svg>
