<svg id="Icons" height="512" viewBox="0 0 74 74" width="512" xmlns="http://www.w3.org/2000/svg"><path d="m41.407 43.64h-8.814a2.262 2.262 0 0 1 -2.259-2.259v-23.926a2.262 2.262 0 0 1 2.259-2.255h8.814a2.262 2.262 0 0 1 2.259 2.259v23.921a2.262 2.262 0 0 1 -2.259 2.26zm-8.814-26.44a.259.259 0 0 0 -.259.259v23.921a.259.259 0 0 0 .259.259h8.814a.259.259 0 0 0 .259-.259v-23.925a.259.259 0 0 0 -.259-.259z"/><path d="m65.967 51.253a6.038 6.038 0 0 1 -2.693-.637l-21.053-10.475a1 1 0 0 1 -.555-.9v-19.652a1 1 0 0 1 .555-.9l21.053-10.47a6.037 6.037 0 0 1 8.726 5.405v31.587a6.049 6.049 0 0 1 -6.033 6.042zm-22.3-12.627 20.5 10.2a4.037 4.037 0 0 0 5.833-3.615v-31.587a4.037 4.037 0 0 0 -5.835-3.614l-20.5 10.2z"/><path d="m8.033 51.253a6.049 6.049 0 0 1 -6.033-6.042v-31.587a6.037 6.037 0 0 1 8.726-5.405l21.053 10.475a1 1 0 0 1 .555.9v19.652a1 1 0 0 1 -.555.9l-21.053 10.47a6.038 6.038 0 0 1 -2.693.637zm0-41.67a4.045 4.045 0 0 0 -4.033 4.041v31.587a4.037 4.037 0 0 0 5.835 3.614l20.5-10.2v-18.417l-20.5-10.2a4.035 4.035 0 0 0 -1.8-.425z"/><path d="m26.121 66.418c-.028 0-.056 0-.084 0a1 1 0 0 1 -.878-.722c-.094-.328-2.393-8.051-9.962-8.965a1 1 0 0 1 -.685-1.587l9.848-13.323a1 1 0 0 1 1.608 1.188l-8.9 12.035c5.16 1.281 7.881 5.318 9.129 7.888l9.9-20.722a1 1 0 0 1 1.8.862l-10.88 22.78a1 1 0 0 1 -.896.566z"/><path d="m47.879 66.419a1 1 0 0 1 -.9-.569l-10.879-22.779a1 1 0 0 1 1.8-.862l9.9 20.722c1.248-2.57 3.969-6.607 9.129-7.888l-8.9-12.035a1 1 0 0 1 1.608-1.188l9.848 13.323a1 1 0 0 1 -.685 1.587c-7.6.917-9.939 8.883-9.962 8.963a1 1 0 0 1 -.877.724c-.025.001-.053.002-.082.002z"/></svg>