<svg id="Icons" height="512" viewBox="0 0 74 74" width="512" xmlns="http://www.w3.org/2000/svg"><path d="m53.351 15.145h9.009v2h-9.009z" transform="matrix(.707 -.707 .707 .707 5.529 45.638)"/><path d="m37 72a35 35 0 1 1 35-35 35.04 35.04 0 0 1 -35 35zm0-68a33 33 0 1 0 33 33 33.037 33.037 0 0 0 -33-33z"/><path d="m37 63a26 26 0 1 1 26-26 26.029 26.029 0 0 1 -26 26zm0-50a24 24 0 1 0 24 24 24.027 24.027 0 0 0 -24-24z"/><path d="m36 3h2v9h-2z"/><path d="m36 62h2v9h-2z"/><path d="m62 36h9v2h-9z"/><path d="m3 36h9v2h-9z"/><path d="m56.855 53.351h2v9.009h-2z" transform="matrix(.707 -.707 .707 .707 -23.964 57.855)"/><path d="m15.145 11.641h2v9.009h-2z" transform="matrix(.707 -.707 .707 .707 -6.687 16.145)"/><path d="m11.641 56.855h9.009v2h-9.009z" transform="matrix(.707 -.707 .707 .707 -36.181 28.362)"/><path d="m37 37.8a1 1 0 0 1 -.707-.293l-10.8-10.8a1 1 0 0 1 1.414-1.414l10.093 10.093 10.093-10.093a1 1 0 0 1 1.414 1.414l-10.8 10.8a1 1 0 0 1 -.707.293z"/><path d="m37 52.456a1 1 0 0 1 -1-1v-14.656a1 1 0 0 1 2 0v14.656a1 1 0 0 1 -1 1z"/><path d="m43.788 37.8h-13.576a1 1 0 1 1 0-2h13.576a1 1 0 0 1 0 2z"/><path d="m43.788 43.334h-13.576a1 1 0 0 1 0-2h13.576a1 1 0 0 1 0 2z"/></svg>