<?xml version="1.0"?>
<svg xmlns="http://www.w3.org/2000/svg" id="Icons" fill="#9e9e9e" viewBox="0 0 74 74" width="512" height="512"><path d="M37,66.44a1,1,0,0,1-.771-.364l-34-41.24A1,1,0,0,1,3,23.2H71a1,1,0,0,1,.771,1.636l-34,41.24A1,1,0,0,1,37,66.44ZM5.121,25.2,37,63.868,68.879,25.2Z"/><path d="M37,66.44a1,1,0,0,1-.926-.622L19.219,24.579a1,1,0,0,1,.926-1.378h33.71a1,1,0,0,1,.926,1.378L37.926,65.818A1,1,0,0,1,37,66.44ZM21.634,25.2,37,62.8,52.366,25.2Z"/><path d="M71,25.2H3a1,1,0,0,1-.82-1.572L13.1,7.988a1,1,0,0,1,.82-.428H60.08a1,1,0,0,1,.82.428l10.92,15.64A1,1,0,0,1,71,25.2Zm-66.082-2H69.082L59.559,9.56H14.441Z"/><path d="M53.855,25.2H20.145a1,1,0,0,1-.9-1.428l7.414-15.64a1,1,0,0,1,.9-.572H46.441a1,1,0,0,1,.9.572l7.414,15.64a1,1,0,0,1-.9,1.428Zm-32.129-2H52.274L45.809,9.56H28.191Z"/></svg>
