<svg id="Icons" height="512" viewBox="0 0 74 74" width="512" xmlns="http://www.w3.org/2000/svg"><path d="m24.067 29.421h-9.234a1 1 0 0 1 -1-1v-20.221a5.318 5.318 0 0 1 5.312-5.312h4.923a1 1 0 0 1 1 1v24.533a1 1 0 0 1 -1.001 1zm-8.234-2h7.234v-22.536h-3.922a3.315 3.315 0 0 0 -3.312 3.315z"/><path d="m30.523 14.842h-6.456a1 1 0 0 1 -1-1v-9.957a1 1 0 0 1 1-1h6.456a1 1 0 0 1 1 1v9.957a1 1 0 0 1 -1 1zm-5.456-2h4.456v-7.957h-4.456z"/><path d="m33.628 15.734a6.816 6.816 0 0 1 -3.638-1.05 1 1 0 0 1 1.066-1.692 4.813 4.813 0 0 0 2.571.742 4.867 4.867 0 0 0 0-9.734 4.792 4.792 0 0 0 -2.561.731 1 1 0 1 1 -1.066-1.691 6.783 6.783 0 0 1 3.628-1.04 6.867 6.867 0 0 1 0 13.734z"/><path d="m22.123 37.155h-5.345a1 1 0 0 1 -1-1v-7.734a1 1 0 0 1 1-1h5.345a1 1 0 0 1 1 1v7.734a1 1 0 0 1 -1 1zm-4.345-2h3.345v-5.734h-3.345z"/><path d="m19.45 55.022a1 1 0 0 1 -1-1v-17.867a1 1 0 0 1 2 0v17.867a1 1 0 0 1 -1 1z"/><path d="m43.739 46.4h-9.239a1 1 0 0 1 -1-1v-20.226a5.318 5.318 0 0 1 5.312-5.312h4.923a1 1 0 0 1 1 1v24.538a1 1 0 0 1 -.996 1zm-8.234-2h7.234v-22.537h-3.923a3.315 3.315 0 0 0 -3.316 3.311z"/><path d="m50.2 31.819h-6.461a1 1 0 0 1 -1-1v-9.956a1 1 0 0 1 1-1h6.461a1 1 0 0 1 1 1v9.956a1 1 0 0 1 -1 1zm-5.456-2h4.456v-7.956h-4.461z"/><path d="m53.3 32.711a6.807 6.807 0 0 1 -3.638-1.05 1 1 0 1 1 1.066-1.691 4.814 4.814 0 0 0 2.571.742 4.867 4.867 0 1 0 0-9.734 4.784 4.784 0 0 0 -2.56.731 1 1 0 0 1 -1.068-1.691 6.782 6.782 0 0 1 3.628-1.04 6.867 6.867 0 1 1 0 13.734z"/><path d="m41.795 54.132h-5.345a1 1 0 0 1 -1-1v-7.732a1 1 0 0 1 1-1h5.345a1 1 0 0 1 1 1v7.734a1 1 0 0 1 -1 .998zm-4.345-2h3.345v-5.732h-3.345z"/><path d="m39.122 72a1 1 0 0 1 -1-1v-17.868a1 1 0 0 1 2 0v17.868a1 1 0 0 1 -1 1z"/></svg>