<?xml version="1.0"?>
<svg xmlns="http://www.w3.org/2000/svg" id="Icons" viewBox="0 0 74 74" width="512" height="512"><path d="M37,72A35.04,35.04,0,0,1,2,37V3A1,1,0,0,1,3,2H14.5a1,1,0,0,1,1,1V35.75a21.5,21.5,0,0,0,43,0V3a1,1,0,0,1,1-1H71a1,1,0,0,1,1,1V37A35.04,35.04,0,0,1,37,72ZM4,4V37a33,33,0,0,0,66,0V4H60.5V35.75a23.5,23.5,0,0,1-47,0V4Z"/><path d="M71,14.583H59.5a1,1,0,0,1,0-2H71a1,1,0,0,1,0,2Z"/><path d="M14.5,14.583H3a1,1,0,0,1,0-2H14.5a1,1,0,0,1,0,2Z"/><path d="M33.556,43.7a1,1,0,0,1-.989-1.143l1.52-10.494-7.339-1.086a1,1,0,0,1-.577-1.68L41.42,13.31a1,1,0,0,1,1.685.966l-3.08,10.76L47.411,27.4a1,1,0,0,1,.422,1.639l-13.55,14.35A1,1,0,0,1,33.556,43.7ZM28.95,29.281l6.415.949a1,1,0,0,1,.843,1.132L35,39.716l10.29-10.9-6.8-2.173a1,1,0,0,1-.657-1.228l2.23-7.79Z"/></svg>
