<svg id="Icons" height="512" viewBox="0 0 74 74" width="512" xmlns="http://www.w3.org/2000/svg"><path d="m70.306 72h-66.612a1 1 0 0 1 -1-1v-17.633a6.885 6.885 0 0 1 6.877-6.877h54.858a6.885 6.885 0 0 1 6.877 6.877v17.633a1 1 0 0 1 -1 1zm-65.612-2h64.612v-16.633a4.883 4.883 0 0 0 -4.877-4.877h-54.858a4.883 4.883 0 0 0 -4.877 4.877z"/><path d="m70.306 60.245a10.008 10.008 0 0 1 -6.087-1.934 8.565 8.565 0 0 0 -10.02 0 10.557 10.557 0 0 1 -12.179 0 8.57 8.57 0 0 0 -10.023 0 10.016 10.016 0 0 1 -6.089 1.933 10.023 10.023 0 0 1 -6.093-1.933 8.016 8.016 0 0 0 -5.015-1.617 8.016 8.016 0 0 0 -5.015 1.618 10.022 10.022 0 0 1 -6.092 1.933 1 1 0 0 1 0-2 8.016 8.016 0 0 0 5.014-1.618 10.027 10.027 0 0 1 6.093-1.933 10.023 10.023 0 0 1 6.093 1.933 8.016 8.016 0 0 0 5.015 1.618 8.006 8.006 0 0 0 5.011-1.618 10.558 10.558 0 0 1 12.18 0 8.57 8.57 0 0 0 10.022 0 10.552 10.552 0 0 1 12.176 0 8 8 0 0 0 5.009 1.618 1 1 0 0 1 0 2z"/><path d="m62.908 48.49h-51.24a1 1 0 0 1 -1-1v-14.09a5.528 5.528 0 0 1 5.521-5.521h42.2a5.527 5.527 0 0 1 5.519 5.521v14.09a1 1 0 0 1 -1 1zm-50.24-2h49.24v-13.09a3.525 3.525 0 0 0 -3.521-3.521h-42.2a3.526 3.526 0 0 0 -3.519 3.521z"/><path d="m62.908 39.673a7.9 7.9 0 0 1 -4.808-1.523 6.36 6.36 0 0 0 -7.458 0 8.352 8.352 0 0 1 -9.618 0 6.364 6.364 0 0 0 -7.461 0 8.355 8.355 0 0 1 -9.619 0 5.975 5.975 0 0 0 -3.733-1.208 5.978 5.978 0 0 0 -3.732 1.208 7.909 7.909 0 0 1 -4.812 1.523 1 1 0 0 1 0-2 5.975 5.975 0 0 0 3.733-1.208 7.912 7.912 0 0 1 4.811-1.523 7.909 7.909 0 0 1 4.812 1.523 6.367 6.367 0 0 0 7.463 0 8.351 8.351 0 0 1 9.617 0 6.366 6.366 0 0 0 7.462 0 8.346 8.346 0 0 1 9.614 0 5.965 5.965 0 0 0 3.729 1.208 1 1 0 0 1 0 2z"/><path d="m50.714 29.877h-7.836a1 1 0 0 1 -1-1v-12.734a1 1 0 0 1 1-1h7.836a1 1 0 0 1 1 1v12.734a1 1 0 0 1 -1 1zm-6.836-2h5.836v-10.734h-5.836z"/><path d="m46.8 17.143a1 1 0 0 1 -1-1v-3.168a1 1 0 0 1 2 0v3.168a1 1 0 0 1 -1 1z"/><path d="m46.8 13.975a4.163 4.163 0 0 1 -4.158-4.158c0-1.932 2.757-6.458 3.31-7.345a1.038 1.038 0 0 1 1.7 0c.553.887 3.31 5.413 3.31 7.345a4.163 4.163 0 0 1 -4.162 4.158zm0-9.019c-1.071 1.877-2.158 4.071-2.158 4.861a2.158 2.158 0 1 0 4.316 0c-.004-.79-1.091-2.984-2.158-4.861z"/><path d="m31.122 29.877h-7.836a1 1 0 0 1 -1-1v-12.734a1 1 0 0 1 1-1h7.836a1 1 0 0 1 1 1v12.734a1 1 0 0 1 -1 1zm-6.836-2h5.836v-10.734h-5.836z"/><path d="m27.2 17.143a1 1 0 0 1 -1-1v-3.168a1 1 0 0 1 2 0v3.168a1 1 0 0 1 -1 1z"/><path d="m27.2 13.975a4.163 4.163 0 0 1 -4.158-4.158c0-1.932 2.757-6.458 3.31-7.345a1.038 1.038 0 0 1 1.7 0c.553.887 3.31 5.413 3.31 7.345a4.163 4.163 0 0 1 -4.162 4.158zm0-9.019c-1.071 1.877-2.158 4.071-2.158 4.861a2.158 2.158 0 1 0 4.316 0c.004-.79-1.083-2.984-2.158-4.861z"/></svg>