<?xml version="1.0"?>
<svg xmlns="http://www.w3.org/2000/svg" id="Icons" viewBox="0 0 74 74" width="512" height="512"><path d="M27.351,72a11.223,11.223,0,0,1-8.5-3.879L3.607,50.495A6.188,6.188,0,0,1,2.1,46.448V17.262a1,1,0,0,1,1-1H23.845a1,1,0,0,1,1,1v23.53a1.588,1.588,0,0,0,.417,1.075L35.624,53.194A11.222,11.222,0,0,1,27.351,72ZM4.1,18.262V46.448a4.187,4.187,0,0,0,1.02,2.738L20.361,66.808A9.227,9.227,0,1,0,34.148,54.544L23.787,43.217a3.583,3.583,0,0,1-.942-2.425V18.262Z"/><path d="M23.845,26.042H3.1a1,1,0,1,1,0-2H23.845a1,1,0,0,1,0,2Z"/><path d="M19.45,68.283a1,1,0,0,1-.681-1.732L33.744,52.625a1,1,0,0,1,1.362,1.465L20.131,68.015A1,1,0,0,1,19.45,68.283Z"/><path d="M8.948,56.147a1,1,0,0,1-.63-1.777,7.673,7.673,0,0,0,2.858-5.991,7.709,7.709,0,0,0-7.7-7.7c-.1,0-.179,0-.275.008A1,1,0,1,1,3,38.7a4.593,4.593,0,0,1,.477-.018,9.711,9.711,0,0,1,9.7,9.7,9.667,9.667,0,0,1-3.6,7.545A1,1,0,0,1,8.948,56.147Z"/><path d="M60.682,57.734a11.222,11.222,0,0,1-8.5-3.88L36.939,36.232a6.188,6.188,0,0,1-1.507-4.047V3a1,1,0,0,1,1-1H57.177a1,1,0,0,1,1,1V26.53a1.589,1.589,0,0,0,.417,1.075L68.956,38.932a11.223,11.223,0,0,1-8.273,18.8ZM37.432,4V32.186a4.187,4.187,0,0,0,1.02,2.738L53.692,52.546A9.227,9.227,0,1,0,67.48,40.282L57.119,28.955a3.583,3.583,0,0,1-.942-2.425V4Z"/><path d="M57.177,11.779H36.432a1,1,0,0,1,0-2H57.177a1,1,0,0,1,0,2Z"/><path d="M52.781,54.021a1,1,0,0,1-.681-1.732L67.075,38.364a1,1,0,1,1,1.362,1.465L53.462,53.753A1,1,0,0,1,52.781,54.021Z"/><path d="M42.28,41.885a1,1,0,0,1-.629-1.777,7.7,7.7,0,0,0-4.843-13.69,2.669,2.669,0,0,0-.279.008,1,1,0,0,1-.194-1.99,4.649,4.649,0,0,1,.473-.018,9.7,9.7,0,0,1,6.1,17.245A1,1,0,0,1,42.28,41.885Z"/></svg>
