<svg id="Icons" fill="#9e9e9e" height="512" viewBox="0 0 74 74" width="512" xmlns="http://www.w3.org/2000/svg"><path d="m56.927 66.146h-39.854a1 1 0 0 1 -1-1v-35.346a1 1 0 0 1 2 0v34.346h37.854v-34.346a1 1 0 0 1 2 0v35.346a1 1 0 0 1 -1 1z"/><path d="m68.567 30.8h-11.64a1 1 0 0 1 0-2h10.8l2.133-12.075-22.054-6.8a26.345 26.345 0 0 1 -21.615 0l-22.054 6.8 2.134 12.075h10.8a1 1 0 0 1 0 2h-11.638a1 1 0 0 1 -.984-.826l-2.433-13.774a1 1 0 0 1 .689-1.129l23.253-7.171a.993.993 0 0 1 .7.042 24.49 24.49 0 0 0 20.682 0 .993.993 0 0 1 .7-.042l23.253 7.174a1 1 0 0 1 .689 1.129l-2.43 13.77a1 1 0 0 1 -.985.827z"/><path d="m37 19.591a11.764 11.764 0 0 1 -11.746-10.638 1 1 0 0 1 1.99-.2 9.805 9.805 0 0 0 19.515 0 1 1 0 0 1 1.99.2 11.765 11.765 0 0 1 -11.749 10.638z"/></svg>