<?xml version="1.0"?>
<svg xmlns="http://www.w3.org/2000/svg" fill="#9e9e9e" id="Icons" viewBox="0 0 74 74" width="512" height="512"><path d="M69,60H5a3,3,0,0,1-3-3V17a3,3,0,0,1,3-3H69a3,3,0,0,1,3,3V57A3,3,0,0,1,69,60ZM5,16a1,1,0,0,0-1,1V57a1,1,0,0,0,1,1H69a1,1,0,0,0,1-1V17a1,1,0,0,0-1-1Z"/><path d="M57.125,54H16.875a1,1,0,0,1-1-1A6.883,6.883,0,0,0,9,46.125a1,1,0,0,1-1-1V28.875a1,1,0,0,1,1-1A6.883,6.883,0,0,0,15.875,21a1,1,0,0,1,1-1h40.25a1,1,0,0,1,1,1A6.883,6.883,0,0,0,65,27.875a1,1,0,0,1,1,1v16.25a1,1,0,0,1-1,1A6.883,6.883,0,0,0,58.125,53,1,1,0,0,1,57.125,54ZM17.819,52H56.181A8.893,8.893,0,0,1,64,44.181V29.819A8.893,8.893,0,0,1,56.181,22H17.819A8.893,8.893,0,0,1,10,29.819V44.181A8.893,8.893,0,0,1,17.819,52Z"/><path d="M55.875,40.563A3.563,3.563,0,1,1,59.438,37,3.567,3.567,0,0,1,55.875,40.563Zm0-5.125A1.563,1.563,0,1,0,57.438,37,1.565,1.565,0,0,0,55.875,35.438Z"/><path d="M18.125,40.563A3.563,3.563,0,1,1,21.688,37,3.567,3.567,0,0,1,18.125,40.563Zm0-5.125A1.563,1.563,0,1,0,19.688,37,1.565,1.565,0,0,0,18.125,35.438Z"/><path d="M37,48.5A11.5,11.5,0,1,1,48.5,37,11.513,11.513,0,0,1,37,48.5Zm0-21A9.5,9.5,0,1,0,46.5,37,9.511,9.511,0,0,0,37,27.5Z"/><path d="M37,38a3.612,3.612,0,1,1,3.612-3.612,1,1,0,0,1-2,0A1.612,1.612,0,1,0,37,36a1,1,0,0,1,0,2Z"/><path d="M37,43.224a3.616,3.616,0,0,1-3.612-3.612,1,1,0,0,1,2,0A1.612,1.612,0,1,0,37,38a1,1,0,0,1,0-2,3.612,3.612,0,1,1,0,7.224Z"/><path d="M37,44.336a1,1,0,0,1-1-1V42.229a1,1,0,1,1,2,0v1.108A1,1,0,0,1,37,44.336Z"/><path d="M37,32.771a1,1,0,0,1-1-1V30.664a1,1,0,0,1,2,0v1.108A1,1,0,0,1,37,32.771Z"/></svg>
