<?xml version="1.0"?>
<svg xmlns="http://www.w3.org/2000/svg" fill="#9e9e9e" id="Icons" viewBox="0 0 74 74" width="512" height="512"><path d="M53.738,72H20.262a7.285,7.285,0,0,1-7.277-7.277V21.831a1,1,0,0,1,1-1H60.016a1,1,0,0,1,1,1V64.723A7.285,7.285,0,0,1,53.738,72ZM14.984,22.831V64.723A5.283,5.283,0,0,0,20.262,70H53.738a5.283,5.283,0,0,0,5.277-5.277V22.831Z"/><path d="M49.031,31.2a1,1,0,0,1-1-1V15.031a11.031,11.031,0,0,0-22.062,0V30.2a1,1,0,0,1-2,0V15.031a13.031,13.031,0,0,1,26.063,0V30.2A1,1,0,0,1,49.031,31.2Z"/><path d="M52.169,31.2H45.893a1,1,0,0,1,0-2h6.276a1,1,0,0,1,0,2Z"/><path d="M28.107,31.2H21.831a1,1,0,0,1,0-2h6.276a1,1,0,0,1,0,2Z"/><path d="M36.969,50.844a5.294,5.294,0,1,1-.033-10.583h.039a5.386,5.386,0,0,1,5.465,5.253,1,1,0,0,1-.993,1.007h-.007a1,1,0,0,1-1-.993,3.385,3.385,0,0,0-3.465-3.267h-.025a3.3,3.3,0,1,0,.021,6.583H37a1,1,0,0,1,.007,2Z"/><path d="M37.03,59.426a5.386,5.386,0,0,1-5.465-5.253,1,1,0,0,1,.993-1.007h.007a1,1,0,0,1,1,.993,3.385,3.385,0,0,0,3.465,3.267h.025A3.387,3.387,0,0,0,40.5,54.11,3.186,3.186,0,0,0,39.482,51.8a3.534,3.534,0,0,0-2.446-.96H37a1,1,0,0,1-.007-2,5.611,5.611,0,0,1,3.862,1.508A5.168,5.168,0,0,1,42.5,54.1a5.389,5.389,0,0,1-5.431,5.33Z"/><path d="M37.075,61.289a1,1,0,0,1-1-.995l-.01-1.863a1,1,0,0,1,1-1.005h0a1,1,0,0,1,1,.995l.01,1.863a1,1,0,0,1-1,1.005Z"/><path d="M36.935,42.265a1,1,0,0,1-1-.995l-.01-1.863a1,1,0,0,1,1-1.005h0a1,1,0,0,1,1,.995l.01,1.863a1,1,0,0,1-1,1.005Z"/></svg>
