<svg id="Icons" height="512" viewBox="0 0 74 74" width="512" xmlns="http://www.w3.org/2000/svg"><path d="m54.971 62.839h-36.685a1 1 0 0 1 -1-1v-31.1l-5.947 6.468a1 1 0 0 1 -1.388.082l-7.6-6.522a1 1 0 0 1 -.133-1.379l11.726-14.847a1 1 0 0 1 .571-.357l13.747-3a1 1 0 0 1 1.213.977 7.152 7.152 0 0 0 14.3 0 1 1 0 0 1 1.213-.977l13.747 3a1 1 0 0 1 .557.339l12.478 15.05a1 1 0 0 1 -.119 1.4l-7.6 6.522a1 1 0 0 1 -1.364-.057l-6.715-6.821v31.222a1 1 0 0 1 -1.001 1zm-35.685-2h34.685v-32.666a1 1 0 0 1 1.712-.7l7.772 7.895 6.145-5.275-11.623-14.029-12.277-2.679a9.153 9.153 0 0 1 -18.142 0l-12.266 2.677-10.912 13.812 6.14 5.268 7.029-7.642a1 1 0 0 1 1.736.677z"/></svg>