<?xml version="1.0"?>
<svg xmlns="http://www.w3.org/2000/svg" id="Icons" viewBox="0 0 74 74" width="512" height="512"><path d="M40.214,72H33.786a2.008,2.008,0,0,1-1.956-1.585L30.7,65.125a28.5,28.5,0,0,1-9.138-3.787l-4.539,2.947a2.013,2.013,0,0,1-2.5-.264L9.979,59.477a2.01,2.01,0,0,1-.264-2.5l2.946-4.541A28.5,28.5,0,0,1,8.875,43.3L3.584,42.169A2.009,2.009,0,0,1,2,40.213V33.787a2.009,2.009,0,0,1,1.584-1.956L8.875,30.7a28.5,28.5,0,0,1,3.787-9.137l-2.946-4.54a2.011,2.011,0,0,1,.264-2.5l4.544-4.544a2.012,2.012,0,0,1,2.5-.264l4.54,2.947A28.5,28.5,0,0,1,30.7,8.875L31.83,3.584A2.008,2.008,0,0,1,33.786,2h6.428A2.008,2.008,0,0,1,42.17,3.585L43.3,8.875a28.5,28.5,0,0,1,9.138,3.787l4.539-2.947a2.013,2.013,0,0,1,2.5.264l4.544,4.544a2.007,2.007,0,0,1,.263,2.5l-2.945,4.539A28.515,28.515,0,0,1,65.125,30.7l5.291,1.126A2.009,2.009,0,0,1,72,33.787v6.427a2.009,2.009,0,0,1-1.584,1.956L65.125,43.3a28.515,28.515,0,0,1-3.787,9.138l2.946,4.54a2.007,2.007,0,0,1-.264,2.5l-4.544,4.544a2.011,2.011,0,0,1-2.5.264l-4.54-2.947A28.5,28.5,0,0,1,43.3,65.125L42.17,70.416A2.008,2.008,0,0,1,40.214,72ZM21.567,59.145a1,1,0,0,1,.556.168A26.548,26.548,0,0,0,31.742,63.3a1,1,0,0,1,.783.773L33.787,70h6.427l1.261-5.928a1,1,0,0,1,.783-.773,26.548,26.548,0,0,0,9.619-3.986,1,1,0,0,1,1.1-.007l5.085,3.3,4.544-4.544-3.3-5.085a1,1,0,0,1,.008-1.1A26.547,26.547,0,0,0,63.3,42.258a1,1,0,0,1,.772-.783L70,40.213V33.787l-5.928-1.262a1,1,0,0,1-.772-.783,26.547,26.547,0,0,0-3.986-9.619,1,1,0,0,1-.008-1.1l3.3-5.085-4.544-4.545-5.085,3.3a1,1,0,0,1-1.1-.007A26.548,26.548,0,0,0,42.258,10.7a1,1,0,0,1-.783-.773L40.213,4H33.786L32.525,9.928a1,1,0,0,1-.783.773,26.548,26.548,0,0,0-9.619,3.986,1,1,0,0,1-1.1.007l-5.085-3.3-4.544,4.544,3.3,5.086a1,1,0,0,1-.008,1.1A26.558,26.558,0,0,0,10.7,31.742a1,1,0,0,1-.772.783L4,33.787v6.427l5.928,1.262a1,1,0,0,1,.772.783,26.558,26.558,0,0,0,3.986,9.618,1,1,0,0,1,.008,1.1l-3.3,5.085,4.544,4.545,5.085-3.3A1,1,0,0,1,21.567,59.145Z"/><path d="M37,59A22,22,0,1,1,59,37,22.025,22.025,0,0,1,37,59Zm0-42A20,20,0,1,0,57,37,20.023,20.023,0,0,0,37,17Z"/><path d="M45.349,48.625h-16.7a2.082,2.082,0,0,1-2.079-2.08v-9.8a1,1,0,0,1,1-1H46.428a1,1,0,0,1,1,1v9.8A2.082,2.082,0,0,1,45.349,48.625ZM28.572,37.75v8.8a.079.079,0,0,0,.079.08h16.7a.079.079,0,0,0,.079-.08v-8.8Z"/><path d="M47.986,37.75H26.014a1.6,1.6,0,0,1-1.6-1.6V32.974a1.6,1.6,0,0,1,1.6-1.6H47.986a1.6,1.6,0,0,1,1.6,1.6v3.181A1.6,1.6,0,0,1,47.986,37.75Zm-21.568-2H47.582V33.378H26.418Z"/><path d="M37.1,33.382a1,1,0,0,1-.947-1.321c1.578-4.67,2.488-5.456,2.788-5.715a3.888,3.888,0,0,1,2.859-.962,3.968,3.968,0,0,1,2.336,6.953,5.742,5.742,0,0,1-2.058,1,1,1,0,1,1-.607-1.905,4.039,4.039,0,0,0,1.34-.59,1.968,1.968,0,0,0-1.146-3.459,1.909,1.909,0,0,0-1.412.475c-.373.323-1.17,1.781-2.206,4.847A1,1,0,0,1,37.1,33.382Z"/><path d="M36.9,33.382a1,1,0,0,1-.947-.68c-1.036-3.066-1.833-4.524-2.2-4.842a1.922,1.922,0,0,0-1.418-.48,1.966,1.966,0,0,0-1.158,3.448,3.933,3.933,0,0,0,1.359.6,1,1,0,1,1-.6,1.908,5.7,5.7,0,0,1-2.085-1.009A3.967,3.967,0,0,1,32.2,25.384a3.9,3.9,0,0,1,2.865.967c.294.253,1.2,1.04,2.782,5.709a1,1,0,0,1-.947,1.321Z"/><path d="M36.9,48.625a1,1,0,0,1-1-1V36.75a1,1,0,0,1,2,0V47.625A1,1,0,0,1,36.9,48.625Z"/></svg>
