<svg id="Icons" height="512" viewBox="0 0 74 74" width="512" xmlns="http://www.w3.org/2000/svg"><path d="m55.962 60.124a16.76 16.76 0 0 1 -16.741-16.741 5.741 5.741 0 0 1 5.735-5.735h14.653a8.24 8.24 0 0 1 8.23 8.23v2.368a11.891 11.891 0 0 1 -11.877 11.878zm-11.006-20.476a3.739 3.739 0 0 0 -3.735 3.735 14.758 14.758 0 0 0 14.741 14.741 9.889 9.889 0 0 0 9.878-9.877v-2.368a6.237 6.237 0 0 0 -6.23-6.23z"/><path d="m18.337 60.124a11.891 11.891 0 0 1 -11.878-11.877v-2.368a8.24 8.24 0 0 1 8.231-8.23h14.653a5.742 5.742 0 0 1 5.735 5.735 16.76 16.76 0 0 1 -16.741 16.74zm-3.647-20.476a6.238 6.238 0 0 0 -6.231 6.23v2.368a9.889 9.889 0 0 0 9.878 9.877 14.758 14.758 0 0 0 14.742-14.74 3.739 3.739 0 0 0 -3.735-3.735z"/><path d="m66.83 46.6a1 1 0 0 1 0-2 3.166 3.166 0 0 0 2.94-4.342l-8.544-21.366a4.774 4.774 0 0 0 -4.455-3.016h-2.729a1 1 0 0 1 0-2h2.729a6.765 6.765 0 0 1 6.312 4.274l8.543 21.366a5.167 5.167 0 0 1 -4.8 7.084z"/><path d="m7.48 46.6h-.939a4.537 4.537 0 0 1 -4.213-6.222l8.888-22.228a6.765 6.765 0 0 1 6.312-4.274h2.729a1 1 0 0 1 0 2h-2.729a4.774 4.774 0 0 0 -4.455 3.016l-8.888 22.229a2.537 2.537 0 0 0 2.356 3.479h.939a1 1 0 0 1 0 2z"/><path d="m40.384 46.6a1 1 0 0 1 -.446-.105 5.873 5.873 0 0 0 -5.576 0 1 1 0 1 1 -.895-1.789 7.858 7.858 0 0 1 7.365 0 1 1 0 0 1 -.448 1.895z"/><path d="m44.956 39.648h-15.613a1 1 0 0 1 0-2h15.613a1 1 0 0 1 0 2z"/></svg>