<?xml version="1.0"?>
<svg xmlns="http://www.w3.org/2000/svg" id="Icons" viewBox="0 0 74 74" width="512" height="512"><path d="M69,37H5a1,1,0,0,1-1-1V33.724C4,16.231,18.8,2,37,2S70,16.231,70,33.724V36A1,1,0,0,1,69,37ZM6,35H68V33.724C68,17.334,54.094,4,37,4S6,17.334,6,33.724Z"/><path d="M51,37H23a1,1,0,0,1-1-1V33.724C22,15.935,28.589,2,37,2S52,15.935,52,33.724V36A1,1,0,0,1,51,37ZM24,35H50V33.724C50,17.612,44.047,4,37,4S24,17.612,24,33.724Z"/><path d="M31,72a7.008,7.008,0,0,1-7-7,1,1,0,0,1,2,0,5,5,0,0,0,10,0V36a1,1,0,0,1,2,0V65A7.008,7.008,0,0,1,31,72Z"/></svg>
