<svg id="Icons" height="512" viewBox="0 0 74 74" width="512" xmlns="http://www.w3.org/2000/svg"><path d="m65.324 36.668h-13.852a1 1 0 0 1 0-2h13.852a4.318 4.318 0 1 0 0-8.636h-19.63a1 1 0 0 1 -.975-1.226c.028-.119 2.7-11.94-1.674-17.711a7.886 7.886 0 0 0 -6.225-3.089c-.418.125-2.034.824-1.834 4.118v5c-.021.273-1.833 18.594-17.908 22.278a1 1 0 0 1 -.447-1.949c14.675-3.363 16.345-20.247 16.359-20.417v-4.852c-.265-4.33 2.219-5.934 3.569-6.169a1.026 1.026 0 0 1 .218-.015 9.943 9.943 0 0 1 7.866 3.89c4.088 5.4 2.878 14.78 2.272 18.142h18.409a6.318 6.318 0 1 1 0 12.636z"/><path d="m65.324 47.305h-12.178a1 1 0 1 1 0-2h12.178a4.318 4.318 0 1 0 0-8.637h-13.852a1 1 0 0 1 0-2h13.852a6.318 6.318 0 1 1 0 12.637z"/><path d="m63.191 57.941h-8.155a1 1 0 0 1 0-2h8.155a4.318 4.318 0 0 0 0-8.636h-10.045a1 1 0 1 1 0-2h10.045a6.318 6.318 0 0 1 0 12.636z"/><path d="m58.524 68.58h-41.667a1 1 0 0 1 0-2h41.667a4.32 4.32 0 0 0 0-8.64h-3.486a1 1 0 0 1 0-2h3.486a6.32 6.32 0 0 1 0 12.64z"/><path d="m14.978 72h-9.741a2.883 2.883 0 0 1 -2.88-2.88v-37.166a2.883 2.883 0 0 1 2.88-2.88h9.74a2.883 2.883 0 0 1 2.88 2.88v37.166a2.883 2.883 0 0 1 -2.879 2.88zm-9.741-40.926a.881.881 0 0 0 -.88.88v37.166a.881.881 0 0 0 .88.88h9.74a.881.881 0 0 0 .88-.88v-37.166a.881.881 0 0 0 -.88-.88z"/></svg>