<?xml version="1.0"?>
<svg xmlns="http://www.w3.org/2000/svg" id="Icons" viewBox="0 0 74 74" width="512" height="512"><path d="M37,65.2a1,1,0,0,1-.784-.38c-.856-1.082-20.963-26.67-20.963-41.076a21.747,21.747,0,0,1,43.494,0c0,14.406-20.107,39.994-20.963,41.076A1,1,0,0,1,37,65.2ZM37,4A19.769,19.769,0,0,0,17.253,23.747c0,12.166,15.986,33.879,19.747,38.818,3.761-4.94,19.747-26.657,19.747-38.818A19.769,19.769,0,0,0,37,4Z"/><path d="M37,39.9a15.6,15.6,0,1,1,15.6-15.6A15.618,15.618,0,0,1,37,39.9Zm0-29.2a13.6,13.6,0,1,0,13.6,13.6A13.616,13.616,0,0,0,37,10.694Z"/><path d="M31.454,31.157a1,1,0,0,1-.71-1.7L42.082,18.025a1,1,0,0,1,1.42,1.408L32.164,30.861A1,1,0,0,1,31.454,31.157Z"/><path d="M41.02,31.584A3.28,3.28,0,1,1,44.3,28.3,3.284,3.284,0,0,1,41.02,31.584Zm0-4.561A1.28,1.28,0,1,0,42.3,28.3,1.282,1.282,0,0,0,41.02,27.023Z"/><path d="M32.98,23.48a3.28,3.28,0,1,1,3.28-3.28A3.284,3.284,0,0,1,32.98,23.48Zm0-4.561a1.28,1.28,0,1,0,1.28,1.28A1.282,1.282,0,0,0,32.98,18.92Z"/><path d="M58.475,72H15.525a1,1,0,0,1-.945-1.327l6.442-18.608a1,1,0,0,1,.945-.673h6.625a1,1,0,1,1,0,2H22.68L16.93,70H57.07L51.32,53.392H45.407a1,1,0,0,1,0-2h6.625a1,1,0,0,1,.945.673l6.442,18.608A1,1,0,0,1,58.475,72Z"/></svg>
