<svg id="Icons" height="512" viewBox="0 0 74 74" width="512" xmlns="http://www.w3.org/2000/svg"><path d="m65.756 67.06h-57.512a3.171 3.171 0 0 1 -3.167-3.167v-58.726a3.171 3.171 0 0 1 3.167-3.167h57.512a3.171 3.171 0 0 1 3.167 3.167v58.726a3.171 3.171 0 0 1 -3.167 3.167zm-57.512-63.06a1.168 1.168 0 0 0 -1.167 1.167v58.726a1.168 1.168 0 0 0 1.167 1.167h57.512a1.168 1.168 0 0 0 1.167-1.167v-58.726a1.168 1.168 0 0 0 -1.167-1.167z"/><path d="m67.926 18.5h-61.852a1 1 0 0 1 0-2h61.852a1 1 0 0 1 0 2z"/><path d="m58.671 14.24a3.964 3.964 0 1 1 3.964-3.964 3.969 3.969 0 0 1 -3.964 3.964zm0-5.929a1.964 1.964 0 1 0 1.964 1.964 1.967 1.967 0 0 0 -1.964-1.963z"/><path d="m15.329 14.24a3.964 3.964 0 1 1 3.964-3.964 3.969 3.969 0 0 1 -3.964 3.964zm0-5.929a1.964 1.964 0 1 0 1.964 1.964 1.966 1.966 0 0 0 -1.964-1.963z"/><path d="m49.666 13.971h-25.332a1 1 0 0 1 -1-1v-5.39a1 1 0 0 1 1-1h25.332a1 1 0 0 1 1 1v5.39a1 1 0 0 1 -1 1zm-24.332-2h23.332v-3.39h-23.332z"/><path d="m37 58.167a16.5 16.5 0 1 1 15.3-22.667 1 1 0 0 1 -1.854.748 14.507 14.507 0 1 0 -.284 11.477 1 1 0 0 1 1.818.832 16.5 16.5 0 0 1 -14.98 9.61z"/><path d="m36.953 53.925a12.255 12.255 0 1 1 10.636-18.325 1 1 0 0 1 -1.733 1 10.256 10.256 0 1 0 -8.9 15.331 10.2 10.2 0 0 0 8.628-4.737 1 1 0 1 1 1.686 1.077 12.189 12.189 0 0 1 -10.317 5.654z"/><path d="m52.063 49.139h-4.851a1.541 1.541 0 0 1 -1.539-1.539v-11.184a1.541 1.541 0 0 1 1.539-1.539h4.851a1.541 1.541 0 0 1 1.537 1.539v11.184a1.541 1.541 0 0 1 -1.537 1.539zm-4.39-2h3.927v-10.262h-3.927z"/><path d="m59.906 72h-9.926a1 1 0 0 1 -1-1v-4.94a1 1 0 0 1 1-1h9.926a1 1 0 0 1 1 1v4.94a1 1 0 0 1 -1 1zm-8.926-2h7.926v-2.94h-7.926z"/><path d="m23.907 72h-9.926a1 1 0 0 1 -1-1v-4.94a1 1 0 0 1 1-1h9.926a1 1 0 0 1 1 1v4.94a1 1 0 0 1 -1 1zm-8.926-2h7.926v-2.94h-7.926z"/></svg>