<?xml version="1.0"?>
<svg xmlns="http://www.w3.org/2000/svg" id="Icons" viewBox="0 0 74 74" width="512" height="512"><path d="M18.5,48H5a3,3,0,0,1-3-3V29a3,3,0,0,1,3-3H18.5a1,1,0,0,1,0,2H5a1,1,0,0,0-1,1V45a1,1,0,0,0,1,1H18.5a1,1,0,0,1,0,2Z"/><path d="M69,48H42.5a1,1,0,0,1,0-2H69a1,1,0,0,0,1-1V29a1,1,0,0,0-1-1H42.5a1,1,0,0,1,0-2H69a3,3,0,0,1,3,3V45A3,3,0,0,1,69,48Z"/><path d="M40.5,51.5h-20a3,3,0,0,1-3-3v-23a3,3,0,0,1,3-3h20a3,3,0,0,1,3,3v23A3,3,0,0,1,40.5,51.5Zm-20-27a1,1,0,0,0-1,1v23a1,1,0,0,0,1,1h20a1,1,0,0,0,1-1v-23a1,1,0,0,0-1-1Z"/><path d="M36.5,46.5h-12a2,2,0,0,1-2-2v-15a2,2,0,0,1,2-2h12a2,2,0,0,1,2,2v5.344a1,1,0,0,1-2,0V29.5h-12v15h12V39.153a1,1,0,0,1,2,0V44.5A2,2,0,0,1,36.5,46.5Z"/><path d="M42.5,40.156H35.021a1.731,1.731,0,0,1-1.729-1.729V35.573a1.731,1.731,0,0,1,1.729-1.729H42.5a1,1,0,0,1,1,1v4.313A1,1,0,0,1,42.5,40.156Zm-7.208-2H41.5V35.844H35.292Z"/><path d="M62.336,40.537A3.537,3.537,0,1,1,65.872,37,3.54,3.54,0,0,1,62.336,40.537Zm0-5.073A1.537,1.537,0,1,0,63.872,37,1.538,1.538,0,0,0,62.336,35.463Z"/><path d="M51.164,40.537A3.537,3.537,0,1,1,54.7,37,3.54,3.54,0,0,1,51.164,40.537Zm0-5.073A1.537,1.537,0,1,0,52.7,37,1.538,1.538,0,0,0,51.164,35.463Z"/><path d="M10.75,40.537A3.537,3.537,0,1,1,14.286,37,3.54,3.54,0,0,1,10.75,40.537Zm0-5.073A1.537,1.537,0,1,0,12.286,37,1.538,1.538,0,0,0,10.75,35.463Z"/></svg>
