<svg id="Icons" height="512" viewBox="0 0 74 74" width="512" xmlns="http://www.w3.org/2000/svg"><path d="m69 72h-64a3 3 0 0 1 -3-3v-64a3 3 0 0 1 3-3h64a3 3 0 0 1 3 3v64a3 3 0 0 1 -3 3zm-64-68a1 1 0 0 0 -1 1v64a1 1 0 0 0 1 1h64a1 1 0 0 0 1-1v-64a1 1 0 0 0 -1-1z"/><path d="m3 18h68v2h-68z"/><path d="m62.114 14.948a3.24 3.24 0 1 1 3.24-3.24 3.244 3.244 0 0 1 -3.24 3.24zm0-4.48a1.24 1.24 0 1 0 1.24 1.24 1.241 1.241 0 0 0 -1.24-1.24z"/><path d="m52.388 14.948a3.24 3.24 0 1 1 3.24-3.24 3.244 3.244 0 0 1 -3.24 3.24zm0-4.48a1.24 1.24 0 1 0 1.24 1.24 1.241 1.241 0 0 0 -1.24-1.24z"/><path d="m42.662 14.948a3.24 3.24 0 1 1 3.24-3.24 3.244 3.244 0 0 1 -3.24 3.24zm0-4.48a1.24 1.24 0 1 0 1.24 1.24 1.241 1.241 0 0 0 -1.24-1.24z"/><path d="m35.083 12.708h-25.437a1 1 0 0 1 0-2h25.437a1 1 0 0 1 0 2z"/><path d="m37 62.313a17.313 17.313 0 1 1 17.313-17.313 17.332 17.332 0 0 1 -17.313 17.313zm0-32.625a15.313 15.313 0 1 0 15.313 15.312 15.33 15.33 0 0 0 -15.313-15.312z"/><path d="m37 46a5.39 5.39 0 1 1 5.39-5.39 1 1 0 0 1 -2 0 3.39 3.39 0 1 0 -3.39 3.39 1 1 0 0 1 0 2z"/><path d="m37 54.78a5.4 5.4 0 0 1 -5.39-5.39 1 1 0 0 1 2 0 3.39 3.39 0 1 0 3.39-3.39 1 1 0 0 1 0-2 5.39 5.39 0 1 1 0 10.78z"/><path d="m37 56.432a1 1 0 0 1 -1-1v-20.864a1 1 0 0 1 2 0v20.864a1 1 0 0 1 -1 1z"/></svg>