<svg id="Icons" height="512" viewBox="0 0 74 74" width="512" xmlns="http://www.w3.org/2000/svg"><path d="m22.791 40.252a1 1 0 0 1 -.6-.2l-12.92-9.693a1 1 0 0 1 1.2-1.6l12.074 9.058 11.655-17.48a1 1 0 0 1 1.664 1.109l-12.24 18.36a1 1 0 0 1 -.663.431 1.038 1.038 0 0 1 -.17.015z"/><path d="m60.344 55.476h-46.688a1 1 0 0 1 -.968-.749l-6.068-23.427a1 1 0 1 1 1.936-.5l5.875 22.675h45.138l5.875-22.675a1 1 0 1 1 1.936.5l-6.068 23.427a1 1 0 0 1 -.968.749z"/><path d="m51.209 40.252a1.038 1.038 0 0 1 -.169-.014 1 1 0 0 1 -.663-.431l-12.24-18.36a1 1 0 1 1 1.663-1.11l11.653 17.48 12.074-9.058a1 1 0 0 1 1.2 1.6l-12.917 9.693a1 1 0 0 1 -.601.2z"/><path d="m60.965 61.565h-47.93a2.015 2.015 0 0 1 -1.912-2.652l1.585-4.754a1 1 0 0 1 .948-.684h46.688a1 1 0 0 1 .948.684l1.584 4.754a2.014 2.014 0 0 1 -1.911 2.652zm-46.588-6.09-1.356 4.07 47.944.02-1.345-4.09z"/><path d="m67.194 32.132a4.806 4.806 0 1 1 4.806-4.805 4.812 4.812 0 0 1 -4.806 4.805zm0-7.612a2.806 2.806 0 1 0 2.806 2.807 2.809 2.809 0 0 0 -2.806-2.806z"/><path d="m6.806 32.132a4.806 4.806 0 1 1 4.807-4.806 4.811 4.811 0 0 1 -4.807 4.806zm0-7.612a2.806 2.806 0 1 0 2.807 2.806 2.809 2.809 0 0 0 -2.807-2.805z"/><path d="m37 22.406a4.986 4.986 0 1 1 4.985-4.986 4.991 4.991 0 0 1 -4.985 4.986zm0-7.972a2.986 2.986 0 1 0 2.985 2.986 2.989 2.989 0 0 0 -2.985-2.985z"/></svg>