<?xml version="1.0"?>
<svg xmlns="http://www.w3.org/2000/svg" id="Icons" viewBox="0 0 74 74" width="512" height="512"><path d="M45.654,56.378H28.508a1,1,0,0,1,0-2H45.654a2.667,2.667,0,0,0,1.9-.778c.046-.046.086-.09.123-.132a1.078,1.078,0,0,1,.066-.089,2.646,2.646,0,0,0,.614-1.7,2.7,2.7,0,0,0-2.7-2.7H36.073a1,1,0,0,1-.74-.328,13.666,13.666,0,0,0-10.095-4.462H12.92a1,1,0,0,1,0-2H25.238a15.671,15.671,0,0,1,11.269,4.79h9.147a4.706,4.706,0,0,1,4.7,4.7,4.658,4.658,0,0,1-1,2.893.934.934,0,0,1-.085.115c-.092.108-.186.215-.293.323A4.672,4.672,0,0,1,45.654,56.378Z"/><path d="M37.042,68.385A21.5,21.5,0,0,1,29.713,67.1L12.578,60.88A1,1,0,0,1,13.262,59L30.4,65.223a19.652,19.652,0,0,0,15.553-.965L69.219,52.376a9.429,9.429,0,0,0-9.095-1.521L48.972,54.917a.979.979,0,0,1-.466.118,1,1,0,0,1-.687-1.736.976.976,0,0,1,.345-.215l11.278-4.106A11.434,11.434,0,0,1,70.7,51l.959.831a1,1,0,0,1-.2,1.646l-24.6,12.559A21.662,21.662,0,0,1,37.042,68.385Z"/><path d="M9.833,63.75H3a1,1,0,0,1-1-1v-22.1a1,1,0,0,1,1-1H9.833a4.087,4.087,0,0,1,4.082,4.083V59.667A4.087,4.087,0,0,1,9.833,63.75ZM4,61.75H9.833a2.085,2.085,0,0,0,2.082-2.083V43.734a2.084,2.084,0,0,0-2.082-2.083H4Z"/><path d="M58.332,40.908H39.182A7.02,7.02,0,0,1,32.17,33.9V6.608a1,1,0,0,1,1-1H64.344a1,1,0,0,1,1,1V33.9A7.02,7.02,0,0,1,58.332,40.908ZM34.17,7.608V33.9a5.018,5.018,0,0,0,5.012,5.012h19.15A5.018,5.018,0,0,0,63.344,33.9V7.608Z"/><path d="M48.757,26.5a8.556,8.556,0,0,1-8.547-8.546V13.545a1,1,0,0,1,2,0v4.412a6.547,6.547,0,0,0,13.094,0V13.545a1,1,0,0,1,2,0v4.412A8.556,8.556,0,0,1,48.757,26.5Z"/><path d="M43.336,14.545H39.085a1,1,0,0,1,0-2h4.251a1,1,0,0,1,0,2Z"/><path d="M58.429,14.545H54.178a1,1,0,0,1,0-2h4.251a1,1,0,0,1,0,2Z"/></svg>
